<?xml version="1.0" encoding="utf-8"?>
<!-- Generator: Adobe Illustrator 27.5.0, SVG Export Plug-In . SVG Version: 6.00 Build 0)  -->
<svg version="1.1" xmlns="http://www.w3.org/2000/svg" xmlns:xlink="http://www.w3.org/1999/xlink" x="0px" y="0px"
	 viewBox="0 0 1725 2319.744" style="enable-background:new 0 0 1725 2319.744;" xml:space="preserve">
<g id="Bg">
	<rect style="opacity:0;fill:#FFFFFF;" width="1725" height="2319.74"/>
</g>
<g id="Layer_1">
	<g>
		<path style="fill:#FFB000;" d="M787.173,1931.007l-242.075-270.495l0.352-0.702c-2.956-3.831-5.763-7.815-8.556-11.814
			l-153.725-86.35l256.761,286.891C650.607,1855.016,704.918,1885.423,787.173,1931.007z"/>
		<path style="fill:#FFB000;" d="M255.285,1219.169l213.514,119.935c0.215-3.32,0.349-6.587,0.607-9.936
			c13.734-177.384,90.231-370.686,202.284-532.554L456.654,671.619c-110.656,157.37-186.368,346.698-199.779,520.182
			C256.159,1201.058,255.655,1210.163,255.285,1219.169z"/>
		<path style="fill:#FFB000;" d="M501.943,1583.591c-23.509-56.728-35.32-124.298-34.794-200.643l-212.299-119.255
			c2.089,85.71,21.293,157.976,56.675,212.935L501.943,1583.591z"/>
		<path style="fill:#FFFFFF;" d="M484.561,642.708l209.904,122.013c66.115-89.236,143.067-167.37,225.977-225.716
			c29.057-20.443,58.097-38.039,86.855-52.747L798.866,369.17C687.414,421.193,576.652,517.594,484.561,642.708z"/>
		<path style="fill:#FFFFFF;" d="M844.932,350.274l206.079,115.767c52.276-21.624,103.135-33.353,150.957-34.919
			c0,0-134.396-77.137-134.483-77.179C1005.187,322.122,928.748,320.992,844.932,350.274z"/>
		<path style="fill:#150035;" d="M1326.004,903.327c0-202.741-142.851-285.211-318.428-183.842
			c-175.58,101.373-318.428,348.792-318.428,551.53c0,202.741,142.848,285.215,318.428,183.842
			C1183.153,1353.488,1326.004,1106.068,1326.004,903.327z M987.052,1308.19c-46.364,25.671-87.03,39.715-121.992,42.129v-86.888
			c16.531-0.11,36.435-3.266,59.713-9.464c23.279-6.198,44.038-13.903,62.279-23.12v-102.028l-19.095,2.467
			c-37.624,4.608-64.278,1.401-79.953-9.627c-15.677-11.023-23.514-31.347-23.514-60.968c0-31.818,10.782-64.208,32.349-97.176
			c21.568-32.968,51.639-62.779,90.214-89.439v-50.356l39.049-22.546v49.038c43.514-22.928,82.85-35.543,118.002-37.848
			l-26.79,92.485c-29.646,3.073-60.049,12.067-91.212,26.987v97.093c37.053-4.938,63.42-5.898,79.095-2.88
			c15.677,3.015,27.175,9.651,34.49,19.912c7.318,10.255,10.975,25.042,10.975,44.348c0,34.887-10.927,69.228-32.781,103.017
			c-21.851,33.791-52.444,64.125-91.778,91.002v67.471l-39.049,22.545V1308.19z"/>
		<path style="fill:#150035;" d="M1026.102,1205.996c25.843-19.967,38.764-40.374,38.764-61.218c0-9.213-3.228-15.137-9.69-17.771
			c-6.46-2.634-16.153-3.62-29.074-2.962V1205.996z"/>
		<path style="fill:#150035;" d="M987.052,955.698c-24.512,18.323-36.77,36.806-36.77,55.459c0,9.651,2.901,15.932,8.693,18.84
			c5.798,2.907,15.156,3.923,28.077,3.045V955.698z"/>
		<path style="fill:#150035;" d="M1342.575,461.162c-5.802-3.012-11.733-5.737-17.737-8.295l-212.385-119.401
			c-5.365-3.489-20.519-13.043-31.278-17.281l0.087-0.235c-114.324-53.336-260.722-23.963-412.281,82.668
			C430.036,566.768,240.373,899.078,217.946,1188.78c-10.672,138.426,15.597,252.371,76.043,330.641l-0.353,0.704l318.943,356.365
			c3.02,3.383,5.043,5.613,253.162,142.556c0.379,0.208,0.797,0.285,1.184,0.469c7.239,6.654,16.141,10.261,25.905,10.261
			c6.478,0,13.308-1.51,20.167-4.573c28.729-12.826,57.808-53.897,53.587-92.284c-9.617-87.798-4.809-164.909,14.305-229.373
			c5.687-3.048,11.377-6.197,17.091-9.496c281.979-162.787,511.396-560.117,511.396-885.714
			C1509.375,640.288,1450.129,516.99,1342.575,461.162z M792.271,343.09L792.271,343.09L792.271,343.09z M652.665,1292.081
			c0-225.971,159.212-501.737,354.911-614.722c195.695-112.988,354.912-21.067,354.912,204.904
			c0,225.972-159.217,501.735-354.912,614.722C811.877,1609.972,652.665,1518.051,652.665,1292.081z M299.03,1491.995
			L299.03,1491.995L299.03,1491.995z M1007.297,486.258c-28.758,14.708-57.798,32.305-86.855,52.747
			c-82.91,58.346-159.862,136.48-225.977,225.716L484.561,642.708c92.092-125.114,202.853-221.516,314.306-273.538L1007.297,486.258
			z M1067.486,353.943c0.087,0.042,11.519,6.315,17.471,10.025l117.011,67.154c-47.823,1.566-98.682,13.296-150.957,34.919
			L844.932,350.274C928.748,320.992,1005.187,322.122,1067.486,353.943z M549.354,1406.735L549.354,1406.735L549.354,1406.735z
			 M613.227,1668.485L613.227,1668.485L613.227,1668.485z M671.69,796.615c-112.053,161.868-188.55,355.17-202.284,532.554
			c-0.258,3.349-0.392,6.616-0.607,9.936l-213.514-119.935c0.37-9.006,0.873-18.111,1.59-27.368
			c13.41-173.483,89.122-362.811,199.779-520.182L671.69,796.615z M467.149,1382.948c-0.527,76.345,11.284,143.915,34.794,200.643
			l-190.419-106.962c-35.382-54.959-54.586-127.225-56.675-212.935L467.149,1382.948z M536.893,1647.996
			c2.793,3.999,5.6,7.983,8.556,11.814l-0.352,0.702l242.075,270.495c-82.255-45.584-136.566-75.991-147.243-82.47l-256.761-286.891
			L536.893,1647.996z"/>
		<path style="fill:none;stroke:#FFB000;stroke-width:0;stroke-linecap:round;stroke-linejoin:round;" d="M613.227,1668.485
			L613.227,1668.485L613.227,1668.485z"/>
		<path style="fill:none;stroke:#FFB000;stroke-width:0;stroke-linecap:round;stroke-linejoin:round;" d="M299.03,1491.995
			L299.03,1491.995L299.03,1491.995z"/>
		<path style="fill:none;stroke:#FFB000;stroke-width:0;stroke-linecap:round;stroke-linejoin:round;" d="M549.354,1406.735
			L549.354,1406.735L549.354,1406.735z"/>
		<path style="fill:none;stroke:#FFB000;stroke-width:0;stroke-linecap:round;stroke-linejoin:round;" d="M792.271,343.09
			L792.271,343.09L792.271,343.09z"/>
		<path style="fill:#FFB000;" d="M1026.102,1284.328c39.335-26.878,69.927-57.212,91.778-91.002
			c21.854-33.789,32.781-68.131,32.781-103.017c0-19.306-3.657-34.092-10.975-44.348c-7.315-10.26-18.813-16.897-34.49-19.912
			c-15.676-3.018-42.042-2.058-79.095,2.88v-97.093c31.164-14.919,61.566-23.914,91.212-26.987l26.79-92.485
			c-35.152,2.305-74.488,14.919-118.002,37.848v-49.038l-39.049,22.546v50.356c-38.575,26.66-68.646,56.471-90.214,89.439
			c-21.567,32.968-32.349,65.359-32.349,97.176c0,29.621,7.837,49.944,23.514,60.968c15.676,11.028,42.329,14.235,79.953,9.627
			l19.095-2.467v102.028c-18.241,9.216-39.001,16.921-62.279,23.12c-23.278,6.198-43.182,9.354-59.713,9.464v86.888
			c34.962-2.414,75.628-16.457,121.992-42.129v66.153l39.049-22.545V1284.328z M1055.176,1127.006
			c6.462,2.634,9.69,8.559,9.69,17.771c0,20.844-12.921,41.251-38.764,61.218v-81.952
			C1039.023,1123.386,1048.716,1124.372,1055.176,1127.006z M958.975,1029.997c-5.792-2.908-8.693-9.188-8.693-18.84
			c0-18.653,12.259-37.137,36.77-55.459v77.344C974.131,1033.919,964.773,1032.903,958.975,1029.997z"/>
		<path style="fill:#FFB000;" d="M1362.488,882.264c0-225.971-159.217-317.892-354.912-204.904
			c-195.699,112.984-354.911,388.751-354.911,614.722c0,225.97,159.212,317.891,354.911,204.904
			C1203.271,1383.999,1362.488,1108.236,1362.488,882.264z M689.148,1271.015c0-202.738,142.848-450.157,318.428-551.53
			c175.577-101.369,318.428-18.899,318.428,183.842s-142.851,450.161-318.428,551.53
			C831.996,1556.229,689.148,1473.755,689.148,1271.015z"/>
	</g>
</g>
</svg>
